<svg width="86" height="86" viewBox="0 0 86 86" fill="none" xmlns="http://www.w3.org/2000/svg">
<g clip-path="url(#clip0_804_388)">
<path d="M86 43C86 51.5046 83.4781 59.8182 78.7532 66.8895C74.0283 73.9608 67.3126 79.4723 59.4554 82.7268C51.5982 85.9814 42.9523 86.8329 34.6111 85.1738C26.27 83.5146 18.6081 79.4193 12.5944 73.4056C6.58077 67.3919 2.48542 59.7301 0.826252 51.3889C-0.832912 43.0477 0.0186313 34.4018 3.2732 26.5446C6.52777 18.6874 12.0392 11.9717 19.1105 7.24681C26.1818 2.52191 34.4954 1.70062e-06 43 1.70062e-06C48.6473 -0.00158672 54.2396 1.10956 59.4573 3.26995C64.675 5.43034 69.4159 8.59763 73.4092 12.5909C77.4024 16.5841 80.5697 21.325 82.7301 26.5427C84.8905 31.7605 86.0016 37.3527 86 43Z" fill="url(#paint0_linear_804_388)"/>
<path d="M35.1159 62.7069C33.7187 62.7069 33.9691 62.1698 33.4674 60.8434L29.3828 47.3713L54.7528 31.5331L57.7268 32.3215L55.2545 39.0571L35.1159 62.7069Z" fill="#C8DAEA"/>
<path d="M35.1167 62.7077C35.5325 62.6994 35.9412 62.5987 36.3131 62.4127C36.685 62.2267 37.0109 61.9603 37.2669 61.6326C38.1987 60.7371 50.1665 49.0914 50.1665 49.0914L42.8212 47.2996L36.0131 51.5991L35.1167 62.3493V62.7077Z" fill="#8ACFF2"/>
<path d="M35.8335 51.7434L53.1734 64.5359C55.144 65.611 56.5775 65.073 57.0792 62.7086L64.1403 29.4554C64.8571 26.553 63.0298 25.2629 61.13 26.123L19.7086 42.1045C16.8779 43.2513 16.9133 44.8281 19.2069 45.5086L29.8491 48.841L54.4687 33.3249C55.6155 32.6082 56.6906 33.0028 55.8305 33.7903L35.8335 51.7434Z" fill="url(#paint1_linear_804_388)"/>
</g>
<defs>
<linearGradient id="paint0_linear_804_388" x1="-244.842" y1="191.694" x2="-248.454" y2="183.266" gradientUnits="userSpaceOnUse">
<stop stop-color="#8ACFF2"/>
<stop offset="1" stop-color="#8ACFF2"/>
</linearGradient>
<linearGradient id="paint1_linear_804_388" x1="46.2006" y1="42.3658" x2="52.9453" y2="27.0706" gradientUnits="userSpaceOnUse">
<stop stop-color="#EFF7FC"/>
<stop offset="1" stop-color="white"/>
</linearGradient>
<clipPath id="clip0_804_388">
<rect width="86" height="86" fill="white"/>
</clipPath>
</defs>
</svg>
