<svg width="86" height="86" viewBox="0 0 86 86" fill="none" xmlns="http://www.w3.org/2000/svg">
<g clip-path="url(#clip0_804_393)">
<path d="M43.0009 85.9992C66.749 85.9992 86.0005 66.7476 86.0005 42.9996C86.0005 19.2516 66.749 0 43.0009 0C19.2529 0 0.00131226 19.2516 0.00131226 42.9996C0.00131226 66.7476 19.2529 85.9992 43.0009 85.9992Z" fill="#8ACFF2"/>
<path d="M69.3391 30.9026C67.4964 31.7197 65.5142 32.2723 63.4355 32.5191C65.5579 31.2475 67.1868 29.2354 67.9556 26.8339C65.9696 28.0121 63.7689 28.8667 61.4288 29.3274C59.5539 27.3306 56.8826 26.0828 53.9246 26.0828C48.2494 26.0828 43.6465 30.6856 43.6465 36.3609C43.6465 37.1665 43.7377 37.9506 43.914 38.7033C35.3721 38.2749 27.7982 34.1832 22.7285 27.963C21.8439 29.4807 21.3365 31.2475 21.3365 33.1308C21.3365 36.6958 23.1524 39.8431 25.9087 41.6858C24.2247 41.6329 22.6388 41.1707 21.2537 40.3989C21.253 40.4425 21.253 40.4862 21.253 40.5292C21.253 45.5092 24.7973 49.6629 29.4983 50.6064C28.6367 50.8425 27.7269 50.9675 26.791 50.9675C26.1272 50.9675 25.4841 50.9039 24.8571 50.7843C26.1647 54.8667 29.9597 57.8385 34.4584 57.922C30.9401 60.6791 26.5089 62.3218 21.6922 62.3218C20.8643 62.3218 20.0442 62.2735 19.2416 62.1777C23.7878 65.095 29.1917 66.7959 34.9957 66.7959C53.9009 66.7959 64.2395 51.1346 64.2395 37.5513C64.2395 37.1059 64.2296 36.6621 64.2096 36.2221C66.2194 34.7734 67.9617 32.9637 69.3391 30.9026Z" fill="#F1F2F2"/>
</g>
<defs>
<clipPath id="clip0_804_393">
<rect width="86" height="86" fill="white"/>
</clipPath>
</defs>
</svg>
